name rise45.9887peak57.8056fall74.9286.mot
datacolumns 19
datarows 20
range 9.64330300000000 9.67496300000000
endheader
time	ground_force1_vx	ground_force1_vy	ground_force1_vz	ground_force1_px	ground_force1_py	ground_force1_pz	ground_force2_vx	ground_force2_vy	ground_force2_vz	ground_force2_px	ground_force2_py	ground_force2_pz	ground_torque1_x	ground_torque1_y	ground_torque1_z	ground_torque2_x	ground_torque2_y	ground_torque2_z	
9.64330300000000	-43.06935700000000	809.13015700000005	50.46866000000000	0.13925500000000	0.00000000000000	0.08844300000000	-10.11052700000000	38.91089800000000	6.07537100000000	0.34362100000000	0.00000000000000	-0.08046000000000	0.00000000000000	20.10825900000000	0.00000000000000	0.00000000000000	2.92776400000000	0.00000000000000	
9.64496200000000	-43.50673300000000	807.05387900000005	50.34137200000000	0.13848600000000	0.00000000000000	0.08842200000000	-11.29433800000000	45.00193000000000	6.89407800000000	0.34819000000000	0.00000000000000	-0.08057400000000	0.00000000000000	20.03509000000000	0.00000000000000	0.00000000000000	3.38378500000000	0.00000000000000	
9.64662800000000	-43.95634300000000	804.86585200000002	50.19169400000000	0.13773000000000	0.00000000000000	0.08839800000000	-12.34452200000000	51.01061200000000	7.66052300000000	0.35252200000000	0.00000000000000	-0.08067900000000	0.00000000000000	19.96084600000000	0.00000000000000	0.00000000000000	3.82802400000000	0.00000000000000	
9.64829500000000	-44.41854800000000	802.56598199999996	50.01934300000000	0.13698800000000	0.00000000000000	0.08836900000000	-13.23483900000000	56.84687700000000	8.35873800000000	0.35663500000000	0.00000000000000	-0.08077700000000	0.00000000000000	19.88561700000000	0.00000000000000	0.00000000000000	4.25155900000000	0.00000000000000	
9.64996300000000	-44.89367100000000	800.15419399999996	49.82407300000000	0.13626000000000	0.00000000000000	0.08833500000000	-13.94870800000000	62.44658600000000	8.97767300000000	0.36054300000000	0.00000000000000	-0.08087100000000	0.00000000000000	19.80948900000000	0.00000000000000	0.00000000000000	4.64750700000000	0.00000000000000	
9.65163600000000	-45.38199200000000	797.63042299999995	49.60568300000000	0.13554500000000	0.00000000000000	0.08829800000000	-14.47922500000000	67.77297799999999	9.51131900000000	0.36425800000000	0.00000000000000	-0.08096300000000	0.00000000000000	19.73254400000000	0.00000000000000	0.00000000000000	5.01122900000000	0.00000000000000	
9.65329500000000	-45.88374100000000	794.99460999999997	49.36400700000000	0.13484300000000	0.00000000000000	0.08825600000000	-14.82838300000000	72.81564000000000	9.95841600000000	0.36779100000000	0.00000000000000	-0.08105300000000	0.00000000000000	19.65485700000000	0.00000000000000	0.00000000000000	5.34032900000000	0.00000000000000	
9.65496200000000	-46.39910200000000	792.24669400000005	49.09892300000000	0.13415500000000	0.00000000000000	0.08821000000000	-15.00569400000000	77.58748100000000	10.32180800000000	0.37115100000000	0.00000000000000	-0.08114400000000	0.00000000000000	19.57649800000000	0.00000000000000	0.00000000000000	5.63445100000000	0.00000000000000	
9.65662900000000	-46.92820400000000	789.38660800000002	48.81035300000000	0.13347800000000	0.00000000000000	0.08815900000000	-15.02643000000000	82.12031300000000	10.60757900000000	0.37434600000000	0.00000000000000	-0.08123600000000	0.00000000000000	19.49753000000000	0.00000000000000	0.00000000000000	5.89495300000000	0.00000000000000	
9.65829700000000	-47.47111900000000	786.41427299999998	48.49825800000000	0.13281400000000	0.00000000000000	0.08810400000000	-14.90970000000000	86.45964499999999	10.82407100000000	0.37738300000000	0.00000000000000	-0.08133000000000	0.00000000000000	19.41801000000000	0.00000000000000	0.00000000000000	6.12448800000000	0.00000000000000	
9.65996200000000	-48.02786200000000	783.32959300000005	48.16264400000000	0.13216100000000	0.00000000000000	0.08804400000000	-14.67653400000000	90.65925700000000	10.98088400000000	0.38027000000000	0.00000000000000	-0.08142700000000	0.00000000000000	19.33798800000000	0.00000000000000	0.00000000000000	6.32654600000000	0.00000000000000	
9.66163500000000	-48.59838400000000	780.13244899999995	47.80356000000000	0.13151900000000	0.00000000000000	0.08797900000000	-14.34814900000000	94.77603900000000	11.08795700000000	0.38301000000000	0.00000000000000	-0.08152800000000	0.00000000000000	19.25750700000000	0.00000000000000	0.00000000000000	6.50501000000000	0.00000000000000	
9.66330000000000	-49.18257300000000	776.82269599999995	47.42109900000000	0.13088700000000	0.00000000000000	0.08791000000000	-13.94448700000000	98.86545000000000	11.15476500000000	0.38560900000000	0.00000000000000	-0.08163200000000	0.00000000000000	19.17660100000000	0.00000000000000	0.00000000000000	6.66375100000000	0.00000000000000	
9.66496100000000	-49.78024900000000	773.40016300000002	47.01539600000000	0.13026500000000	0.00000000000000	0.08783700000000	-13.48310600000000	102.97785600000000	11.18970000000000	0.38807200000000	0.00000000000000	-0.08174200000000	0.00000000000000	19.09529800000000	0.00000000000000	0.00000000000000	6.80629400000000	0.00000000000000	
9.66663300000000	-50.39116000000000	769.86464100000001	46.58663200000000	0.12965100000000	0.00000000000000	0.08775900000000	-12.97843400000000	107.15587700000000	11.19964000000000	0.39040300000000	0.00000000000000	-0.08185600000000	0.00000000000000	19.01361700000000	0.00000000000000	0.00000000000000	6.93556800000000	0.00000000000000	
9.66829700000000	-51.01498500000000	766.21588999999994	46.13502900000000	0.12904600000000	0.00000000000000	0.08767700000000	-12.44139300000000	111.43275600000000	11.18970000000000	0.39260500000000	0.00000000000000	-0.08197500000000	0.00000000000000	18.93156800000000	0.00000000000000	0.00000000000000	7.05374800000000	0.00000000000000	
9.66996600000000	-51.65132300000000	762.45363099999997	45.66085400000000	0.12844900000000	0.00000000000000	0.08759000000000	-11.87935000000000	115.83171100000000	11.16316900000000	0.39468200000000	0.00000000000000	-0.08209900000000	0.00000000000000	18.84915400000000	0.00000000000000	0.00000000000000	7.16218000000000	0.00000000000000	
9.67163200000000	-52.29970100000000	758.57754399999999	45.16441800000000	0.12785800000000	0.00000000000000	0.08749900000000	-11.29633200000000	120.36611200000000	11.12158900000000	0.39663800000000	0.00000000000000	-0.08222900000000	0.00000000000000	18.76637000000000	0.00000000000000	0.00000000000000	7.26139100000000	0.00000000000000	
9.67329900000000	-52.95956200000000	754.58727299999998	44.64607100000000	0.12727200000000	0.00000000000000	0.08740400000000	-10.69345700000000	125.04035300000000	11.06494600000000	0.39847400000000	0.00000000000000	-0.08236400000000	0.00000000000000	18.68320100000000	0.00000000000000	0.00000000000000	7.35115300000000	0.00000000000000	
9.67496300000000	-53.63027200000000	750.48241700000005	44.10621000000000	0.12669200000000	0.00000000000000	0.08730400000000	-10.06949100000000	129.85119800000001	10.99195300000000	0.40019400000000	0.00000000000000	-0.08250500000000	0.00000000000000	18.59962300000000	0.00000000000000	0.00000000000000	7.43060600000000	0.00000000000000	
